<svg width="16" height="18" viewBox="0 0 16 18" fill="none" xmlns="http://www.w3.org/2000/svg">
<path fill-rule="evenodd" clip-rule="evenodd" d="M15.7027 2.9349L8.14267 0.204899C8.05048 0.171609 7.94956 0.171609 7.85737 0.204899L0.297369 2.9349C0.130932 2.995 0.0200195 3.15298 0.0200195 3.32993V8.99993C0.0200195 13.4524 2.67915 16.407 7.89117 17.8056C7.96341 17.825 8.03952 17.8247 8.11163 17.8048C13.3219 16.3685 15.98 13.4151 15.98 8.99993V3.32993C15.98 3.15298 15.8691 2.995 15.7027 2.9349ZM5.10045 8.26514C5.26849 8.10525 5.53434 8.11185 5.69424 8.27989L7.39328 10.0654L10.9612 6.19514C11.1184 6.02459 11.3841 6.01379 11.5546 6.17101C11.7252 6.32823 11.736 6.59394 11.5788 6.76449L7.70694 10.9645C7.54239 11.143 7.26122 11.1452 7.09387 10.9693L5.08571 8.85893C4.92581 8.69089 4.93241 8.42504 5.10045 8.26514Z" fill="#1565D8"/>
</svg>
